<svg xmlns="http://www.w3.org/2000/svg" xmlns:xlink="http://www.w3.org/1999/xlink" width="1350px" height="670px" viewBox="0 0  1350 670" preserveAspectRatio="xMidYMid meet" ><defs id="svgEditorDefs"><path id="svgEditorClosePathDefs" stroke="black" fill="khaki" style="stroke-width: 1px;"/></defs><rect id="svgEditorBackground" x="0" y="0" width="1350" height="670" style="fill: none; stroke: none;"/><line id="e3_line" x1="336" y1="142" x2="338" y2="490" stroke="black" style="stroke-width: 1px; fill: none;"/><line id="e4_line" x1="330" y1="480" x2="713" y2="476" stroke="black" style="stroke-width: 1px; fill: none;"/><path d="M347,455c5.300000000000011,-14.300000000000011,7.699999999999989,-30.100000000000023,16,-43c4.800000000000011,-7.5,11.600000000000023,-14,19,-19c7.199999999999989,-4.800000000000011,15.600000000000023,-8.100000000000023,24,-10c22.5,-5.199999999999989,50.19999999999999,9.300000000000011,69,-4c20.100000000000023,-15.300000000000011,14.899999999999977,-48.39999999999998,29,-69c8.100000000000023,-11.899999999999977,18.600000000000023,-22.69999999999999,31,-30c14.700000000000045,-8.699999999999989,32.200000000000045,-12.100000000000023,49,-15c26.600000000000023,-4.699999999999989,54.89999999999998,3.1000000000000227,81,-4c18.899999999999977,-5.099999999999994,43.700000000000045,-22.69999999999999,52,-27" stroke="black" id="e7_freepath" style="fill: none; stroke-width: 1px;"/><path d="M362,457c4.699999999999989,-11.300000000000011,7.199999999999989,-23.80000000000001,14,-34c4.199999999999989,-6.300000000000011,9.600000000000023,-12,16,-16c12.600000000000023,-7.800000000000011,29.19999999999999,-6.699999999999989,42,-14c18,-10.300000000000011,30.30000000000001,-28.69999999999999,47,-41c18,-13.199999999999989,43.39999999999998,-17.399999999999977,57,-35c17.5,-22.600000000000023,18.799999999999955,-54.10000000000002,25,-82c7.7000000000000455,-34.5,10.299999999999955,-72.30000000000001,15,-105" stroke="black" id="e10_freepath" style="fill: none; stroke-width: 1px;"/></svg>