<?xml version="1.0" standalone="no"?>
<!DOCTYPE svg PUBLIC "-//W3C//DTD SVG 20010904//EN"
 "http://www.w3.org/TR/2001/REC-SVG-20010904/DTD/svg10.dtd">
<svg version="1.0" xmlns="http://www.w3.org/2000/svg"
 width="1024.000000pt" height="1024.000000pt" viewBox="0 0 1024.000000 1024.000000"
 preserveAspectRatio="xMidYMid meet">
<metadata>
Created by potrace 1.13, written by Peter Selinger 2001-2015
</metadata>
<g transform="translate(0.000000,1024.000000) scale(0.100000,-0.100000)"
fill="#000000" stroke="none">
<path d="M3988 9102 c-35 -26 -106 -78 -158 -114 -183 -127 -374 -318 -518
-516 -123 -171 -239 -443 -291 -682 -37 -173 -51 -321 -62 -650 -16 -490 -17
-1516 -1 -1675 59 -598 183 -1021 384 -1317 85 -126 240 -280 348 -347 125
-76 211 -100 408 -113 323 -21 686 29 865 118 80 41 182 135 215 200 35 69 46
161 32 271 -6 52 -18 118 -27 145 -18 62 -81 133 -178 198 -173 117 -381 393
-437 580 -20 70 -17 648 5 850 42 375 100 620 177 738 100 156 317 271 610
324 114 21 155 23 455 23 359 0 510 -12 663 -51 274 -69 483 -280 567 -571 47
-160 58 -260 58 -493 -1 -413 -48 -822 -159 -1374 -24 -121 -44 -224 -44 -230
0 -30 13 19 50 193 110 520 170 1021 170 1425 0 437 -105 725 -332 913 -171
142 -328 182 -789 205 -529 25 -858 -34 -1106 -198 -158 -106 -235 -257 -288
-569 -72 -423 -96 -991 -50 -1183 44 -186 258 -474 445 -599 81 -54 145 -118
161 -161 24 -62 41 -189 37 -277 -5 -110 -34 -173 -113 -251 -99 -96 -191
-136 -421 -181 -130 -25 -156 -27 -414 -27 -311 -1 -344 4 -485 74 -257 126
-483 415 -610 780 -117 338 -174 681 -195 1179 -13 312 12 1603 35 1795 50
425 190 767 427 1051 103 123 286 298 388 369 47 33 120 86 163 118 44 32 85
58 93 58 7 0 17 -12 20 -27 25 -103 146 -262 293 -385 128 -106 144 -135 144
-247 -1 -135 -5 -140 -218 -279 -193 -126 -204 -137 -242 -226 -31 -71 -33
-82 -33 -195 0 -115 1 -120 25 -139 37 -30 145 -47 290 -47 122 0 134 2 185
27 56 28 179 126 260 208 100 102 431 458 462 498 33 43 95 84 218 144 56 28
78 33 161 36 l95 4 38 -55 c36 -53 37 -57 30 -113 -5 -45 -15 -70 -44 -109
-52 -70 -56 -79 -95 -221 -29 -107 -35 -144 -35 -230 0 -113 5 -125 67 -150
48 -20 147 -18 169 3 25 25 50 86 74 183 12 47 31 99 41 116 30 50 159 166
223 203 58 32 61 33 142 26 56 -4 87 -12 96 -22 10 -12 14 -81 18 -262 l5
-246 62 -3 c96 -5 133 10 200 78 33 32 75 86 93 120 125 221 225 338 332 388
122 58 217 83 299 80 l74 -3 -1 -145 c-1 -128 -5 -155 -29 -230 -53 -167 -82
-213 -228 -366 -74 -78 -142 -154 -150 -170 -37 -73 -57 -166 -57 -270 0 -137
1 -138 178 -135 70 1 143 6 162 11 51 14 119 61 214 149 97 90 213 158 311
184 87 24 283 34 342 18 126 -34 186 -177 187 -446 0 -170 -9 -196 -87 -243
-28 -17 -119 -61 -202 -98 -225 -100 -316 -166 -356 -258 -20 -48 -21 -61 -16
-205 7 -167 14 -189 65 -215 52 -27 160 -39 280 -32 184 10 328 46 542 136
118 50 191 67 235 56 37 -10 63 -70 86 -209 24 -139 22 -316 -4 -379 -34 -81
-172 -144 -452 -207 -204 -45 -284 -81 -367 -160 -98 -95 -114 -139 -111 -329
1 -163 5 -173 76 -190 43 -11 174 -19 420 -27 75 -2 156 -9 179 -16 55 -14
103 -64 118 -120 6 -24 25 -84 41 -134 100 -302 39 -455 -204 -516 -76 -19
-335 -7 -418 20 -100 32 -242 102 -364 180 -175 112 -194 123 -262 148 -47 17
-85 23 -143 23 l-80 0 0 -117 c0 -65 -3 -129 -7 -142 -4 -17 -2 -22 7 -19 11
3 14 35 14 134 l1 129 58 3 c98 5 183 -30 374 -154 129 -84 251 -148 363 -190
71 -26 86 -28 265 -32 190 -4 191 -4 265 25 88 33 148 87 175 156 29 76 18
213 -29 362 -50 158 -63 189 -95 219 -45 43 -76 48 -318 56 -343 12 -406 23
-419 74 -3 14 -4 85 -2 158 4 154 20 204 91 276 78 80 178 125 391 173 308 69
427 130 455 234 16 57 14 275 -3 372 -21 117 -33 157 -58 188 -21 26 -24 27
-97 23 -61 -4 -96 -13 -176 -48 -255 -109 -367 -135 -595 -135 -151 0 -180 3
-213 19 -59 29 -66 53 -68 224 -2 137 0 153 21 196 28 59 123 133 235 184 43
21 142 69 220 107 184 92 180 85 180 300 0 187 -18 282 -68 366 -50 83 -92
100 -248 101 -126 0 -231 -16 -306 -47 -66 -28 -167 -97 -243 -167 -152 -140
-213 -163 -407 -156 -80 2 -97 6 -109 22 -19 27 -18 155 1 231 30 115 56 155
197 303 146 154 172 195 223 352 25 75 29 104 33 242 5 184 11 174 -108 172
-81 -1 -184 -31 -293 -86 -106 -53 -185 -143 -308 -351 -42 -72 -85 -128 -126
-168 l-62 -60 -83 3 -83 3 -1 215 c-1 118 -2 225 -3 238 -1 13 -12 34 -26 47
-22 23 -32 25 -118 25 -79 0 -98 -3 -120 -20 -14 -11 -31 -20 -37 -20 -17 0
-189 -169 -207 -204 -8 -15 -25 -68 -37 -116 -30 -114 -62 -171 -101 -182 -60
-16 -154 12 -176 54 -21 40 -5 200 35 337 36 121 51 153 108 219 25 29 28 40
28 106 0 66 -3 77 -31 112 -46 59 -56 64 -136 64 -80 0 -172 -29 -253 -79 -25
-16 -64 -39 -87 -52 -24 -12 -43 -26 -43 -29 0 -10 -177 -209 -299 -335 -58
-61 -129 -135 -156 -165 -75 -81 -232 -209 -289 -236 -45 -21 -65 -24 -176
-24 -123 1 -224 15 -267 39 -30 16 -36 42 -31 158 3 86 7 106 36 168 39 82 54
101 102 125 20 10 99 62 175 114 174 120 188 141 182 281 -2 60 -9 101 -21
123 -9 18 -63 71 -119 117 -137 114 -278 292 -293 372 -5 28 -28 53 -48 53 -3
0 -33 -22 -68 -48z"/>
</g>
</svg>
